<?xml version="1.0" standalone="no"?>
<!DOCTYPE svg PUBLIC "-//W3C//DTD SVG 20010904//EN"
 "http://www.w3.org/TR/2001/REC-SVG-20010904/DTD/svg10.dtd">
<svg version="1.0" xmlns="http://www.w3.org/2000/svg"
 width="661.000000pt" height="377.000000pt" viewBox="0 0 661.000000 377.000000"
 preserveAspectRatio="xMidYMid meet">

<g transform="translate(0.000000,377.000000) scale(0.100000,-0.100000)"
fill="#000000" stroke="none">
<path d="M3231 3519 c-416 -54 -814 -288 -1078 -634 -274 -361 -388 -730 -354
-1149 24 -286 94 -497 251 -756 244 -402 598 -655 1070 -767 145 -34 424 -43
586 -18 308 47 557 156 789 345 75 61 226 223 284 304 142 201 251 457 297
701 22 114 29 381 15 501 -37 302 -171 617 -370 869 -51 64 -190 202 -266 265
-219 179 -522 308 -803 340 -101 11 -329 11 -421 -1z m299 -364 l83 -86 -24
-27 c-13 -15 -95 -100 -183 -189 l-160 -163 34 -36 35 -36 185 192 185 192 33
-41 32 -40 -219 -223 -219 -223 -101 99 c-56 55 -101 105 -101 112 0 7 82 94
182 194 164 164 180 183 165 197 -14 14 -19 11 -61 -33 l-45 -49 -36 35 c-19
19 -34 37 -33 41 5 11 152 169 159 169 3 0 43 -38 89 -85z m-369 -55 c34 -33
33 -62 -3 -92 -27 -23 -49 -23 -82 3 -33 26 -34 62 -1 94 32 33 50 31 86 -5z
m684 5 c31 -30 32 -64 4 -94 -44 -47 -129 0 -113 63 6 25 44 55 72 56 7 0 24
-11 37 -25z m259 -11 l29 -35 -99 -102 c-54 -56 -238 -242 -408 -414 l-310
-313 -33 32 c-18 18 -32 35 -31 39 5 11 811 829 817 828 3 0 19 -16 35 -35z
m-1174 6 c39 -39 14 -100 -41 -100 -35 0 -59 24 -59 57 0 57 61 82 100 43z
m-93 -339 c-23 -25 -55 -58 -71 -73 -32 -29 -40 -27 -78 17 -16 19 -15 22 20
58 l36 37 -69 70 -69 70 34 35 34 35 103 -102 102 -102 -42 -45z m1477 168
c14 -17 26 -34 26 -37 0 -4 -47 -55 -103 -113 l-103 -107 -24 22 c-14 11 -47
45 -74 74 l-49 53 33 34 34 35 38 -37 38 -37 73 72 c39 40 75 72 79 72 3 0 18
-14 32 -31z m-1230 -45 c33 -32 7 -94 -40 -94 -45 0 -67 47 -44 91 13 23 62
26 84 3z m858 -143 c4 -12 177 -191 184 -191 3 0 50 45 104 100 53 55 102 100
107 100 5 0 22 -14 38 -30 l29 -30 -109 -110 -109 -111 114 -114 115 -115 -36
-35 -35 -36 -113 116 -114 116 -33 -32 c-26 -25 -34 -41 -34 -68 l0 -34 23 21
23 22 31 -33 31 -32 -102 -107 c-56 -60 -107 -108 -113 -108 -6 0 -25 16 -43
36 l-32 37 41 41 41 42 0 224 0 225 -198 -203 -197 -203 -33 33 c-17 19 -32
37 -32 42 0 9 432 445 442 446 3 0 8 -4 10 -9z m-838 -166 c103 -101 155 -159
150 -167 -16 -26 -48 -58 -58 -58 -6 0 -66 55 -133 122 l-123 123 -48 -51
c-26 -28 -103 -110 -171 -183 l-124 -132 139 -140 c77 -76 138 -144 136 -150
-1 -5 -66 -75 -144 -155 l-142 -145 -35 36 -36 35 115 115 115 115 -143 143
-143 143 107 113 107 112 -92 93 -91 92 35 34 35 34 88 -87 87 -87 97 100 c53
55 101 100 106 100 5 0 79 -70 166 -155z m-15 -236 c9 -8 61 -61 116 -117 l99
-103 -252 -252 c-139 -139 -252 -255 -252 -259 0 -4 17 -23 37 -43 l36 -35 75
75 c42 41 78 75 82 75 3 0 19 -13 35 -30 l29 -30 -26 -27 c-14 -16 -63 -68
-109 -116 l-84 -88 -110 110 -109 110 249 251 c138 138 249 257 247 263 -2 7
-14 23 -28 37 l-24 25 -85 -85 -85 -85 -102 103 -103 102 120 120 120 120 54
-53 c29 -28 61 -59 70 -68z m779 -131 c-30 -43 -45 -45 -84 -7 l-34 33 -31
-30 c-61 -58 -61 -57 45 -163 l96 -97 -35 -34 -35 -34 -71 69 c-99 97 -183
185 -187 194 -1 5 48 58 110 120 l112 112 67 -67 68 -67 -21 -29z m502 -213
c-1 -5 -61 -71 -135 -145 l-134 -135 -38 38 -38 38 108 102 107 102 -50 50
c-27 27 -50 52 -50 56 0 4 14 22 32 39 l31 32 84 -84 c45 -45 83 -87 83 -93z
m-2045 105 c0 -12 -20 -16 -109 -18 -106 -3 -136 4 -121 27 4 8 44 11 118 9
92 -2 112 -6 112 -18z m2420 0 c0 -12 -20 -16 -112 -18 -90 -2 -113 0 -113 11
0 25 13 28 119 25 86 -2 106 -6 106 -18z m-1130 -161 l170 -170 132 135 131
134 33 -34 c39 -40 54 -17 -154 -228 l-147 -149 -173 171 -172 172 -79 -80
-80 -79 83 -82 82 -82 54 53 c54 54 54 54 76 34 46 -41 44 -47 -46 -141 l-84
-88 -150 150 c-83 82 -150 153 -149 157 6 14 283 296 293 297 6 0 87 -76 180
-170z m-1527 48 c2 -12 -3 -17 -17 -17 -12 0 -21 -6 -21 -15 0 -8 9 -15 20
-15 11 0 20 -7 20 -15 0 -10 -10 -15 -30 -15 -23 0 -33 6 -42 25 -10 22 -8 29
12 50 27 28 53 29 58 2z m116 17 c18 -7 22 -34 6 -34 -7 0 -7 -7 0 -20 15 -27
5 -40 -31 -40 -19 0 -29 5 -29 15 0 8 7 15 17 15 15 0 15 1 0 18 -20 22 -22
38 -4 45 18 8 23 8 41 1z m386 -14 c11 -11 20 -29 20 -40 0 -11 -9 -29 -20
-40 -11 -11 -29 -20 -40 -20 -25 0 -60 34 -60 58 0 25 36 62 60 62 11 0 29 -9
40 -20z m2077 4 c3 -9 0 -20 -8 -25 -12 -8 -12 -10 0 -18 23 -15 5 -43 -26
-39 -29 3 -45 28 -17 28 16 0 16 1 -1 20 -15 16 -15 22 -5 35 16 20 49 19 57
-1z m121 0 c39 -27 23 -84 -24 -84 -33 0 -39 19 -10 30 30 11 35 30 8 30 -26
0 -34 11 -21 27 14 17 20 16 47 -3z m-2448 -9 c20 -24 8 -50 -24 -50 -35 0
-49 25 -14 26 l23 0 -23 10 c-13 5 -20 13 -17 19 9 15 41 12 55 -5z m2200 -29
c0 -17 -27 -28 -51 -21 -34 11 -22 35 16 35 23 0 35 -5 35 -14z m-2210 -140
c0 -21 -23 -26 -123 -26 -93 0 -125 9 -113 29 5 7 48 11 122 11 91 0 114 -3
114 -14z m2418 -3 c-3 -15 -17 -18 -93 -21 -103 -3 -135 2 -135 23 0 12 20 15
116 15 105 0 115 -2 112 -17z m-478 -176 l0 -173 -39 -44 -40 -45 -101 100
-101 100 -95 -102 c-53 -57 -101 -103 -106 -103 -6 0 -32 24 -59 53 l-48 52
-46 -45 -45 -44 -35 34 -35 35 80 80 80 79 55 -54 56 -55 101 102 101 103 36
-33 c20 -18 57 -54 83 -80 26 -26 50 -47 53 -47 3 0 5 38 5 85 l0 85 46 45
c26 25 48 45 50 45 2 0 4 -78 4 -173z m-952 -110 l72 -73 -35 -34 -35 -34 -38
37 -38 37 -37 -37 -37 -37 -35 34 -34 33 66 73 c37 41 69 74 72 74 4 0 39 -33
79 -73z m-570 -251 c29 -15 52 -31 52 -37 0 -6 -15 -28 -32 -49 l-32 -38 -38
19 c-52 26 -103 25 -122 -3 -31 -44 -22 -55 67 -82 45 -14 92 -33 105 -41 59
-42 73 -148 28 -215 -37 -57 -77 -75 -161 -74 -81 1 -122 16 -183 69 l-42 37
38 40 39 40 43 -31 c71 -52 154 -54 166 -5 9 37 -18 60 -87 73 -108 22 -159
71 -159 155 0 146 165 220 318 142z m1009 -13 c67 -54 96 -111 101 -203 6 -97
-14 -161 -68 -223 -99 -112 -292 -123 -394 -21 -61 61 -71 100 -74 302 l-4
182 64 0 63 0 3 -163 c4 -177 13 -214 58 -243 37 -25 120 -24 157 0 64 42 87
155 47 229 -15 28 -20 56 -20 113 0 84 -2 83 67 27z m-647 26 c0 -6 15 -47 34
-92 46 -110 176 -437 176 -442 0 -3 -27 -5 -60 -5 l-60 0 -25 55 -24 55 -90 0
-90 0 -19 -52 -20 -53 -62 -3 c-61 -3 -62 -2 -57 20 3 13 49 129 102 258 53
129 99 243 102 253 4 13 16 17 49 17 25 0 44 -5 44 -11z m1092 -12 c103 -46
161 -135 160 -247 0 -177 -128 -280 -344 -280 l-78 0 0 275 0 275 105 0 c88 0
113 -4 157 -23z m296 -249 l-3 -273 -57 -3 -56 -3 -4 68 c-1 37 -1 161 1 276
l3 207 59 0 59 0 -2 -272z m-1604 -368 c16 -16 -6 -32 -35 -26 -45 9 -44 -12
1 -25 48 -15 63 -48 35 -79 -21 -23 -72 -26 -100 -7 -28 21 -10 39 31 31 22
-4 34 -2 34 5 0 6 -8 11 -18 11 -21 0 -62 35 -62 53 1 16 22 42 40 50 17 7 61
-1 74 -13z m844 -3 c20 -16 -2 -30 -45 -31 -32 -1 -39 -5 -41 -24 -5 -35 16
-53 57 -50 44 4 51 -21 10 -36 -39 -13 -77 0 -98 35 -46 75 48 161 117 106z
m397 -8 c0 -9 -11 -14 -30 -14 -39 -1 -35 -16 7 -29 26 -9 34 -17 36 -41 4
-35 -18 -55 -63 -55 -37 0 -71 22 -61 39 5 7 20 9 42 5 43 -8 44 6 1 26 -51
24 -47 84 6 92 31 5 62 -7 62 -23z m-1017 4 c-3 -18 -8 -19 -55 -22 -31 -1
-29 -21 2 -21 18 0 25 -5 25 -20 0 -15 -7 -20 -25 -20 -14 0 -25 -4 -25 -10 0
-5 18 -10 40 -10 33 0 40 -3 40 -20 0 -18 -7 -20 -65 -20 l-65 0 0 80 0 80 66
0 c57 0 65 -2 62 -17z m132 -43 l0 -60 35 0 c28 0 35 -4 35 -20 0 -18 -7 -20
-55 -20 l-55 0 0 80 c0 73 2 80 20 80 18 0 20 -7 20 -60z m280 45 c0 -11 -12
-15 -45 -15 -33 0 -45 -4 -45 -15 0 -10 10 -15 30 -15 23 0 30 -4 30 -20 0
-16 -7 -20 -30 -20 -16 0 -30 -4 -30 -10 0 -5 20 -10 45 -10 38 0 45 -3 45
-20 0 -18 -7 -20 -65 -20 l-65 0 0 80 0 80 65 0 c51 0 65 -3 65 -15z m420 -5
c0 -13 -7 -20 -20 -20 -17 0 -20 -7 -21 -42 -2 -69 -3 -72 -21 -76 -16 -3 -18
5 -18 57 0 58 -1 60 -27 63 -17 2 -29 10 -31 21 -3 15 5 17 67 17 64 0 71 -2
71 -20z"/>
<path d="M2918 2272 l-47 -47 31 -34 31 -34 43 47 c24 25 44 48 44 51 0 2 -13
18 -28 34 l-28 31 -46 -48z"/>
<path d="M3042 1039 l-20 -54 35 -3 c19 -2 37 -1 40 2 3 2 -4 28 -15 57 l-19
53 -21 -55z"/>
<path d="M4070 1030 l0 -150 31 0 c46 0 98 37 120 84 24 52 23 80 -1 134 -15
33 -29 47 -62 62 -24 11 -53 20 -65 20 -23 0 -23 -1 -23 -150z"/>
</g>
</svg>
